<svg xmlns="http://www.w3.org/2000/svg" xmlns:xlink="http://www.w3.org/1999/xlink" width="204" height="34" viewBox="0 0 204 34"><defs><clipPath id="b"><rect width="204" height="34"/></clipPath></defs><g id="a" clip-path="url(#b)"><g transform="translate(-252.525 -698.314)"><path d="M8.4-62.175V-87.669h3.836l8.829,18.052,8.811-18.052h3.848v25.488h-4V-78.516L21.908-62.175H20.214L12.4-78.516v16.341Zm37.708.531a7.221,7.221,0,0,1-3.516-.786,5.367,5.367,0,0,1-2.166-2.1,5.817,5.817,0,0,1-.733-2.887,6.364,6.364,0,0,1,.462-2.486,5.008,5.008,0,0,1,1.419-1.906,7.65,7.65,0,0,1,2.468-1.326,21.978,21.978,0,0,1,2.7-.674q1.542-.294,3.359-.552t3.809-.556l-1.534.856a4.053,4.053,0,0,0-.884-2.92,4.1,4.1,0,0,0-3.047-.94,5.463,5.463,0,0,0-2.489.607,3.366,3.366,0,0,0-1.683,2.067l-3.9-1.222a7.226,7.226,0,0,1,2.707-3.889,8.88,8.88,0,0,1,5.378-1.469A11.3,11.3,0,0,1,52.948-81a5.591,5.591,0,0,1,2.88,2.729,5.755,5.755,0,0,1,.62,2.057q.106,1.053.106,2.3v11.732H52.812v-4.149l.62.684a8.564,8.564,0,0,1-3.02,3.029A8.718,8.718,0,0,1,46.108-61.644Zm.844-3.405a5.461,5.461,0,0,0,2.476-.515,5.04,5.04,0,0,0,1.638-1.251,4.188,4.188,0,0,0,.82-1.4,5.634,5.634,0,0,0,.385-1.866q.052-1.052.052-1.71l1.31.4q-1.941.31-3.324.534t-2.368.426a15.452,15.452,0,0,0-1.75.456,5.8,5.8,0,0,0-1.25.621,2.578,2.578,0,0,0-.789.813,2.079,2.079,0,0,0-.274,1.08,2.265,2.265,0,0,0,.35,1.247,2.341,2.341,0,0,0,1.033.86A4.059,4.059,0,0,0,46.952-65.049ZM74.44-62.175a17.139,17.139,0,0,1-3.71.313,8.673,8.673,0,0,1-3.249-.673,4.4,4.4,0,0,1-2.17-1.989,5.741,5.741,0,0,1-.7-2.537q-.038-1.289-.038-2.927V-86.607h4.261v16.382q0,1.136.027,2.008a2.893,2.893,0,0,0,.363,1.427,2.471,2.471,0,0,0,2.033,1.176,14.106,14.106,0,0,0,3.184-.131ZM61.108-77.949V-81.3H74.44v3.346ZM88.95-61.644A9.27,9.27,0,0,1,83.9-62.963a8.618,8.618,0,0,1-3.2-3.6,11.763,11.763,0,0,1-1.118-5.171,11.515,11.515,0,0,1,1.157-5.211A8.719,8.719,0,0,1,84-80.527a9.358,9.358,0,0,1,5.013-1.3,9.155,9.155,0,0,1,5.518,1.635,7.461,7.461,0,0,1,2.933,4.467l-4.249,1.162A4.645,4.645,0,0,0,91.57-76.97a4.266,4.266,0,0,0-2.62-.862,4.5,4.5,0,0,0-2.744.794,4.634,4.634,0,0,0-1.588,2.172,9.011,9.011,0,0,0-.519,3.131,7.391,7.391,0,0,0,1.229,4.413,4.186,4.186,0,0,0,3.622,1.683,4.2,4.2,0,0,0,2.688-.782,4.736,4.736,0,0,0,1.478-2.246l4.344.962a8.182,8.182,0,0,1-3.089,4.491A9.129,9.129,0,0,1,88.95-61.644Zm27.381-.531v-9.212a17.246,17.246,0,0,0-.128-1.986,7.408,7.408,0,0,0-.574-2.117,7.5,7.5,0,0,0-1.34-1.675,7.279,7.279,0,0,0-2.425-.655,5.059,5.059,0,0,0-1.6.264,3.656,3.656,0,0,0-1.438.906,4.572,4.572,0,0,0-1.034,1.772A8.935,8.935,0,0,0,107.4-72l-2.532-1.086a10.146,10.146,0,0,1,.947-4.422,7.493,7.493,0,0,1,2.786-3.159,8.275,8.275,0,0,1,4.535-1.172,7.7,7.7,0,0,1,3.5.7,6.114,6.114,0,0,1,2.2,1.8,7.915,7.915,0,0,1,1.2,2.343,12.013,12.013,0,0,1,.5,2.349q.115,1.108.115,1.79v10.676Zm-13.255,0V-87.669h3.8v13.426h.519v12.068ZM135-61.644a8.017,8.017,0,0,1-4.61-1.329,8.821,8.821,0,0,1-3.042-3.615,11.9,11.9,0,0,1-1.081-5.153,11.821,11.821,0,0,1,1.093-5.18,8.715,8.715,0,0,1,3.089-3.591,8.368,8.368,0,0,1,4.711-1.315,7.668,7.668,0,0,1,4.572,1.323A8.189,8.189,0,0,1,142.54-76.9a13.27,13.27,0,0,1,.953,5.156,13.2,13.2,0,0,1-.959,5.15,8.181,8.181,0,0,1-2.847,3.616A7.933,7.933,0,0,1,135-61.644Zm.649-3.818a4.5,4.5,0,0,0,2.774-.794,4.477,4.477,0,0,0,1.537-2.212,10.182,10.182,0,0,0,.481-3.274,10.148,10.148,0,0,0-.482-3.277,4.531,4.531,0,0,0-1.509-2.2,4.236,4.236,0,0,0-2.653-.788,4.56,4.56,0,0,0-2.836.844,4.955,4.955,0,0,0-1.646,2.266,8.921,8.921,0,0,0-.534,3.157,9.136,9.136,0,0,0,.525,3.178,4.968,4.968,0,0,0,1.6,2.263A4.33,4.33,0,0,0,135.651-65.462Zm4.792,3.287V-75.6h-.52V-87.669h4.29v25.494Zm17.968.543a7.7,7.7,0,0,1-3.5-.7,6.114,6.114,0,0,1-2.2-1.8,7.915,7.915,0,0,1-1.2-2.343,12.011,12.011,0,0,1-.5-2.349q-.115-1.108-.115-1.79V-81.3h4.32v9.212a17.263,17.263,0,0,0,.128,1.985,7.409,7.409,0,0,0,.574,2.119,4.05,4.05,0,0,0,1.34,1.675,4.023,4.023,0,0,0,2.425.655,5.058,5.058,0,0,0,1.6-.264,3.657,3.657,0,0,0,1.438-.906,4.568,4.568,0,0,0,1.034-1.779,8.948,8.948,0,0,0,.391-2.869l2.532,1.086a10.146,10.146,0,0,1-.947,4.422,7.493,7.493,0,0,1-2.785,3.159A8.275,8.275,0,0,1,158.411-61.632Zm6.255-.543v-5.931h-.519V-81.3h4.29v19.121Zm11.158,0V-88.2h4.261v26.025Zm20.335.531a10.049,10.049,0,0,1-5.093-1.259,8.92,8.92,0,0,1-3.424-3.488,10.448,10.448,0,0,1-1.232-5.138,11.593,11.593,0,0,1,1.208-5.444,8.82,8.82,0,0,1,3.349-3.582,9.517,9.517,0,0,1,4.956-1.272,8.888,8.888,0,0,1,5.046,1.387,8.247,8.247,0,0,1,3.094,3.919,13.378,13.378,0,0,1,.763,5.978h-4.234V-72.1a7.721,7.721,0,0,0-1.1-4.559A3.968,3.968,0,0,0,196.1-78.1a4.657,4.657,0,0,0-3.9,1.623,7.532,7.532,0,0,0-1.279,4.739,7.027,7.027,0,0,0,1.279,4.5,4.488,4.488,0,0,0,3.719,1.594,5.07,5.07,0,0,0,2.715-.7,4.6,4.6,0,0,0,1.759-2.024l4.219,1.269a8.511,8.511,0,0,1-3.392,4.022A9.39,9.39,0,0,1,196.159-61.644Zm-6.58-8.9v-3.228h13.16v3.228Z" transform="translate(248.125 790.514)" fill="#0b1020"/></g></g></svg>