<svg xmlns="http://www.w3.org/2000/svg" xmlns:xlink="http://www.w3.org/1999/xlink" width="58" height="56" viewBox="0 0 58 56"><defs><clipPath id="b"><rect width="58" height="56"/></clipPath></defs><g id="a" clip-path="url(#b)"><g transform="translate(-189 -695.647)"><path d="M2.714,48A2.711,2.711,0,0,1,0,45.287V5.921A2.711,2.711,0,0,1,2.714,3.211h8.819V0H15.6V3.211H34.429V0H38.5V3.211h8.9a2.712,2.712,0,0,1,2.714,2.709V45.287A2.712,2.712,0,0,1,47.4,48Zm43.334-4.064v-21.8h-19v7.609A17.468,17.468,0,0,1,42.2,43.932Zm-41.977,0H7.828a17.468,17.468,0,0,1,15.153-14.19V22.133H4.07Zm33.953-.084A13.429,13.429,0,0,0,27.052,33.842V43.847Zm-26.014,0H22.981V33.842A13.429,13.429,0,0,0,12.009,43.847ZM46.047,18.069V7.275H38.5v2.94H34.429V7.275H15.6v2.94h-4.07V7.275H4.07V18.069H46.047Z" transform="translate(193 699.647)" fill="#00c27a"/></g></g></svg>