<svg xmlns="http://www.w3.org/2000/svg" width="398.742" height="47.996" viewBox="0 0 398.742 47.996">
  <g id="matchdule-logo" transform="translate(-193 -699.647)">
    <path id="matchdule-icon" d="M2.714,48A2.711,2.711,0,0,1,0,45.287V5.921A2.711,2.711,0,0,1,2.714,3.211h8.819V0H15.6V3.211H34.429V0H38.5V3.211h8.9a2.712,2.712,0,0,1,2.714,2.709V45.287A2.712,2.712,0,0,1,47.4,48Zm43.334-4.064v-21.8h-19v7.609A17.468,17.468,0,0,1,42.2,43.932Zm-41.977,0H7.828a17.468,17.468,0,0,1,15.153-14.19V22.133H4.07Zm33.953-.084A13.429,13.429,0,0,0,27.052,33.842V43.847Zm-26.014,0H22.981V33.842A13.429,13.429,0,0,0,12.009,43.847ZM46.047,18.069V7.275H38.5v2.94H34.429V7.275H15.6v2.94h-4.07V7.275H4.07V18.069H46.047Z" transform="translate(193 699.647)" fill="#fff"/>
    <path id="wordmark" d="M8.4-43.8v-43.5h6.544l15.063,30.8,15.033-30.8H51.6v43.487H44.788v-27.87L31.447-43.8h-2.89L15.216-71.677V-43.8Zm64.336.906a12.321,12.321,0,0,1-6-1.342,9.158,9.158,0,0,1-3.7-3.579,9.924,9.924,0,0,1-1.251-4.926,10.858,10.858,0,0,1,.788-4.241A8.545,8.545,0,0,1,65-60.232a13.052,13.052,0,0,1,4.211-2.263,37.5,37.5,0,0,1,4.614-1.15q2.631-.5,5.732-.941t6.5-.949l-2.618,1.46q.025-3.378-1.508-4.982t-5.2-1.6a9.32,9.32,0,0,0-4.247,1.035A5.743,5.743,0,0,0,69.615-66.1L62.96-68.183a12.329,12.329,0,0,1,4.619-6.635q3.406-2.507,9.175-2.507a19.274,19.274,0,0,1,7.652,1.415,9.539,9.539,0,0,1,4.913,4.657,9.819,9.819,0,0,1,1.057,3.509q.181,1.8.181,3.932V-43.8H84.175v-7.078l1.057,1.168a14.611,14.611,0,0,1-5.153,5.168A14.875,14.875,0,0,1,72.736-42.891Zm1.44-5.809a9.317,9.317,0,0,0,4.224-.879,8.6,8.6,0,0,0,2.794-2.135,7.145,7.145,0,0,0,1.4-2.394,9.613,9.613,0,0,0,.657-3.184q.088-1.795.088-2.917l2.235.674q-3.312.529-5.671.911t-4.04.728a26.363,26.363,0,0,0-2.985.778,9.9,9.9,0,0,0-2.132,1.06A4.4,4.4,0,0,0,69.4-54.671a3.548,3.548,0,0,0-.468,1.843,3.865,3.865,0,0,0,.6,2.127,3.994,3.994,0,0,0,1.762,1.468A6.925,6.925,0,0,0,74.176-48.7Zm46.9,4.9a29.241,29.241,0,0,1-6.331.534,14.8,14.8,0,0,1-5.543-1.148,7.509,7.509,0,0,1-3.7-3.393,9.8,9.8,0,0,1-1.193-4.329q-.065-2.2-.065-4.994V-85.481h7.269v27.951q0,1.938.045,3.426a4.935,4.935,0,0,0,.619,2.434,4.216,4.216,0,0,0,3.469,2.007,24.067,24.067,0,0,0,5.432-.224ZM98.329-70.711V-76.42h22.745v5.709Zm47.5,27.82a15.815,15.815,0,0,1-8.609-2.25,14.7,14.7,0,0,1-5.462-6.144,20.069,20.069,0,0,1-1.908-8.823A19.646,19.646,0,0,1,131.825-69a14.875,14.875,0,0,1,5.553-6.109,15.967,15.967,0,0,1,8.553-2.218,15.62,15.62,0,0,1,9.414,2.789,12.729,12.729,0,0,1,5,7.622L153.1-64.931a7.925,7.925,0,0,0-2.8-4.108,7.279,7.279,0,0,0-4.471-1.47,7.672,7.672,0,0,0-4.682,1.354,7.907,7.907,0,0,0-2.709,3.705,15.374,15.374,0,0,0-.886,5.342,12.61,12.61,0,0,0,2.1,7.529,7.141,7.141,0,0,0,6.18,2.872,7.16,7.16,0,0,0,4.586-1.334,8.08,8.08,0,0,0,2.522-3.831l7.411,1.642a13.96,13.96,0,0,1-5.271,7.662A15.575,15.575,0,0,1,145.831-42.891Zm46.716-.906V-59.514a29.422,29.422,0,0,0-.219-3.388,12.64,12.64,0,0,0-.979-3.612,12.794,12.794,0,0,0-2.285-2.857,12.42,12.42,0,0,0-4.138-1.118,8.632,8.632,0,0,0-2.737.451,6.237,6.237,0,0,0-2.454,1.546,7.8,7.8,0,0,0-1.764,3.023,15.244,15.244,0,0,0-.667,4.908l-4.319-1.852a17.311,17.311,0,0,1,1.616-7.544,12.784,12.784,0,0,1,4.753-5.389,14.118,14.118,0,0,1,7.738-2,13.131,13.131,0,0,1,5.968,1.2,10.431,10.431,0,0,1,3.748,3.079,13.5,13.5,0,0,1,2.054,4,20.5,20.5,0,0,1,.861,4.007q.2,1.89.2,3.053V-43.8Zm-22.614,0v-43.5h6.484v22.906h.886V-43.8Zm54.469.906a13.678,13.678,0,0,1-7.866-2.268,15.051,15.051,0,0,1-5.191-6.167,20.306,20.306,0,0,1-1.845-8.792,20.169,20.169,0,0,1,1.865-8.838,14.869,14.869,0,0,1,5.271-6.127,14.278,14.278,0,0,1,8.037-2.243,13.083,13.083,0,0,1,7.8,2.258,13.972,13.972,0,0,1,4.79,6.152,22.64,22.64,0,0,1,1.626,8.8,22.516,22.516,0,0,1-1.636,8.787,13.958,13.958,0,0,1-4.858,6.17A13.535,13.535,0,0,1,224.4-42.891ZM225.51-49.4a7.678,7.678,0,0,0,4.732-1.354,7.638,7.638,0,0,0,2.623-3.773,17.373,17.373,0,0,0,.821-5.586,17.315,17.315,0,0,0-.823-5.591,7.731,7.731,0,0,0-2.575-3.758,7.227,7.227,0,0,0-4.526-1.344,7.78,7.78,0,0,0-4.838,1.44,8.454,8.454,0,0,0-2.809,3.867,15.221,15.221,0,0,0-.911,5.387,15.587,15.587,0,0,0,.9,5.422,8.477,8.477,0,0,0,2.731,3.861A7.388,7.388,0,0,0,225.51-49.4Zm8.176,5.608V-66.7H232.8V-87.294h7.32v43.5Zm30.657.926a13.131,13.131,0,0,1-5.968-1.2,10.431,10.431,0,0,1-3.748-3.079,13.5,13.5,0,0,1-2.054-4,20.493,20.493,0,0,1-.861-4.007q-.2-1.89-.2-3.053V-76.42h7.37V-60.7a29.449,29.449,0,0,0,.219,3.386,12.641,12.641,0,0,0,.979,3.615,6.91,6.91,0,0,0,2.285,2.857,6.863,6.863,0,0,0,4.138,1.118,8.63,8.63,0,0,0,2.736-.451,6.239,6.239,0,0,0,2.454-1.546,7.793,7.793,0,0,0,1.765-3.036,15.267,15.267,0,0,0,.667-4.9l4.319,1.852a17.311,17.311,0,0,1-1.616,7.544,12.784,12.784,0,0,1-4.753,5.389A14.118,14.118,0,0,1,264.342-42.871Zm10.673-.926V-53.916h-.886v-22.5h7.32V-43.8Zm19.038,0V-88.2h7.269v44.4Zm34.695.906a17.145,17.145,0,0,1-8.689-2.147,15.218,15.218,0,0,1-5.842-5.951,17.827,17.827,0,0,1-2.1-8.767,19.78,19.78,0,0,1,2.062-9.288,15.049,15.049,0,0,1,5.714-6.112,16.237,16.237,0,0,1,8.455-2.17,15.165,15.165,0,0,1,8.609,2.366,14.071,14.071,0,0,1,5.279,6.686,22.826,22.826,0,0,1,1.3,10.2h-7.224v-2.658q-.03-5.326-1.873-7.778t-5.79-2.452q-4.465,0-6.648,2.769t-2.182,8.085q0,4.964,2.182,7.682a7.658,7.658,0,0,0,6.346,2.719,8.65,8.65,0,0,0,4.632-1.2,7.849,7.849,0,0,0,3-3.454l7.2,2.165a14.52,14.52,0,0,1-5.787,6.862A16.02,16.02,0,0,1,328.747-42.891ZM317.52-58.075v-5.507h22.453v5.507Z" transform="translate(248.125 790.514)" fill="#fff"/>
  </g>
</svg>
